<svg width="114" height="2" viewBox="0 0 114 2" fill="none" xmlns="http://www.w3.org/2000/svg">
<path fill-rule="evenodd" clip-rule="evenodd" d="M2.03578 1.5H6.10352e-05V0.5H2.03578V1.5ZM10.1786 1.5H6.1072V0.5H10.1786V1.5ZM18.3215 1.5H14.2501V0.5H18.3215V1.5ZM26.4643 1.5H22.3929V0.5H26.4643V1.5ZM34.6072 1.5H30.5358V0.5H34.6072V1.5ZM42.7501 1.5H38.6786V0.5H42.7501V1.5ZM50.8929 1.5H46.8215V0.5H50.8929V1.5ZM59.0358 1.5H54.9644V0.5H59.0358V1.5ZM67.1786 1.5H63.1072V0.5H67.1786V1.5ZM75.3215 1.5H71.2501V0.5H75.3215V1.5ZM83.4643 1.5H79.3929V0.5H83.4643V1.5ZM91.6072 1.5H87.5358V0.5H91.6072V1.5ZM99.7501 1.5H95.6786V0.5H99.7501V1.5ZM107.893 1.5H103.821V0.5H107.893V1.5ZM114 1.5H111.964V0.5H114V1.5Z" fill="#484848"/>
</svg>
